<svg width="249" height="38" viewBox="0 0 249 38" fill="none" xmlns="http://www.w3.org/2000/svg">
<path d="M22.7855 5.51263C22.9922 5.72785 23.1093 5.905 23.2232 6.17845C23.1581 6.15854 23.093 6.13863 23.026 6.11812C22.8324 6.05943 22.6387 6.00144 22.4449 5.94396C22.2456 5.88481 22.0467 5.8245 21.8484 5.76253C18.299 4.70688 14.1448 5.33648 10.8974 7.03769C9.41294 7.84828 7.6965 8.95913 7.16436 10.6599C7.01855 11.4173 7.01301 12.1111 7.40099 12.7922C9.24908 15.4826 13.9237 16.0095 16.8834 16.7631C18.7498 17.2396 20.5731 17.8026 22.3469 18.5569C21.9499 19.7812 21.55 20.9924 21.0323 22.1718C20.9542 22.357 20.8764 22.5423 20.7987 22.7277C20.7123 22.9327 20.6259 23.1376 20.5394 23.3426C20.4789 23.4872 20.4789 23.4872 20.4173 23.6346C20.1486 24.2664 19.8442 24.865 19.4987 25.4582C19.3993 25.3678 19.2999 25.2774 19.1975 25.1843C17.2312 23.5169 14.7897 22.8899 12.3353 22.2883C12.0768 22.2249 11.8185 22.1607 11.5603 22.0964C10.7359 21.8917 9.9107 21.6939 9.08172 21.5087C6.12674 20.8418 3.12049 19.4531 1.38335 16.8688C0.208784 15.0013 -0.106057 12.8925 0.332098 10.7303C0.697468 9.22441 1.42989 7.80968 2.4099 6.61663C2.47457 6.53416 2.53925 6.45169 2.60588 6.36673C4.69284 3.84461 8.23336 2.38823 11.4199 2.05687C15.7395 1.75858 19.5045 2.59386 22.7855 5.51263Z" fill="#013E70"/>
<path d="M32.5475 32.9494C32.3476 32.7279 32.2361 32.5471 32.1308 32.2702C32.1952 32.2922 32.2597 32.3141 32.326 32.3367C32.5176 32.4014 32.7094 32.4655 32.9014 32.529C33.0987 32.5943 33.2956 32.6608 33.4919 32.729C37.0065 33.8952 41.1784 33.3959 44.4774 31.7972C45.9865 31.0334 47.7369 29.9768 48.322 28.2936C48.4915 27.5411 48.5187 26.8478 48.1522 26.1549C46.3892 23.4079 41.7334 22.735 38.7988 21.8892C36.9482 21.3545 35.1434 20.7347 33.3941 19.9253C33.8291 18.714 34.2668 17.5159 34.8211 16.3532C34.905 16.1706 34.9886 15.9878 35.072 15.805C35.1648 15.6028 35.2576 15.4006 35.3504 15.1985C35.4154 15.0559 35.4154 15.0559 35.4816 14.9104C35.77 14.2874 36.0929 13.6986 36.4568 13.1165C36.5533 13.21 36.6499 13.3034 36.7493 13.3997C38.6624 15.1278 41.0831 15.8309 43.5175 16.5091C43.7739 16.5805 44.03 16.6528 44.2862 16.7251C45.1037 16.9555 45.9223 17.179 46.7451 17.3901C49.6778 18.1491 52.6391 19.6312 54.2945 22.2686C55.41 24.1719 55.6587 26.2896 55.1531 28.437C54.7408 29.9307 53.9645 31.3219 52.9476 32.4836C52.8804 32.5641 52.8132 32.6445 52.7439 32.7273C50.579 35.1829 46.9947 36.5277 43.7993 36.7592C39.4725 36.9222 35.7355 35.9695 32.5475 32.9494Z" fill="#013E70"/>
<path d="M41.8457 2.23496C41.4977 2.51486 41.1343 2.71104 40.7365 2.91276C40.0511 3.27847 39.4668 3.69013 38.888 4.20675C38.8061 4.27961 38.7242 4.35248 38.6398 4.42755C37.5237 5.48125 36.6919 6.82847 35.9303 8.15033C35.8729 8.24829 35.8729 8.24829 35.8144 8.34823C34.3194 10.9311 33.2954 13.8095 32.2401 16.592C31.0836 19.6398 29.8596 22.8052 27.9336 25.4582C27.8588 25.5642 27.7839 25.6701 27.7068 25.7792C25.9605 28.1889 23.8276 29.9316 20.9228 30.7163C20.8467 30.737 20.7705 30.7576 20.6921 30.7789C19.8214 30.9855 18.9492 30.9599 18.061 30.9491C17.9024 30.948 17.7438 30.947 17.5852 30.9461C17.2006 30.9437 16.8161 30.94 16.4315 30.9354C16.6881 30.6788 16.9226 30.5852 17.2531 30.4356C17.9692 30.0831 18.5032 29.6394 19.0606 29.0732C19.1278 29.0058 19.195 28.9385 19.2643 28.8691C21.682 26.2795 22.8901 22.3387 24.0174 19.0636C25.5452 14.6401 27.2564 10.0941 30.3436 6.50717C30.451 6.37264 30.5583 6.23802 30.6654 6.10323C30.7399 6.01963 30.8145 5.93604 30.8913 5.84991C30.9636 5.84991 31.0359 5.84991 31.1104 5.84991C31.1465 5.74146 31.1827 5.63301 31.2199 5.52128C33.9963 2.83654 38.0426 1.6111 41.8457 2.23496Z" fill="#EA0000"/>
<path d="M0 25.6773C0.568752 25.6664 1.13744 25.6585 1.70627 25.6533C1.8992 25.6511 2.09212 25.6481 2.28502 25.6443C3.99714 25.6112 5.36411 25.7833 6.68217 26.9919C6.93643 27.3027 7.13555 27.6326 7.33943 27.9777C7.47011 28.1706 7.60252 28.3623 7.73653 28.5529C7.79669 28.6393 7.85684 28.7257 7.91882 28.8147C9.60598 31.1413 12.5057 31.9906 15.212 32.428C18.8808 32.951 22.8864 32.3124 25.9619 30.1686C25.3031 32.3834 23.4339 34.1263 21.461 35.2023C20.4621 35.7306 19.4515 36.1125 18.3691 36.4332C18.2329 36.4743 18.2329 36.4743 18.0939 36.5163C16.7138 36.9088 15.3214 36.9991 13.8955 36.9949C13.6528 36.9946 13.4102 36.9972 13.1675 36.9999C11.6585 37.0067 10.2016 36.7814 8.75666 36.3373C8.66572 36.3096 8.57478 36.2819 8.48109 36.2534C7.64455 35.987 6.87426 35.6278 6.10712 35.2036C5.93065 35.1065 5.75172 35.0139 5.57261 34.9218C3.10504 33.5944 1.31404 31.2708 0.438175 28.635C0.166057 27.6539 0.0688832 26.69 0 25.6773Z" fill="#013E70"/>
<path d="M45.4586 3.09334C47.1693 3.02274 48.7296 3.64138 50.021 4.73436C52.0007 6.55755 53.2209 9.19539 53.4575 11.8748C53.4586 12.1304 53.4587 12.386 53.4575 12.6416C52.8223 12.6525 52.1872 12.6604 51.552 12.6657C51.3363 12.6679 51.1206 12.6709 50.905 12.6747C50.5933 12.6801 50.2817 12.6825 49.97 12.6844C49.8276 12.6878 49.8276 12.6878 49.6822 12.6913C48.847 12.6916 48.0714 12.467 47.3988 11.9566C47.0457 11.5963 46.802 11.2202 46.5494 10.7862C45.7019 9.35243 44.6842 8.5433 43.0546 8.09051C42.2488 7.89956 41.4469 7.90148 40.6242 7.9087C40.3861 7.91072 40.1479 7.91095 39.9098 7.91092C39.0091 7.90619 39.0091 7.90619 38.1213 8.04079C38.2811 7.55235 38.55 7.19904 38.8813 6.81527C38.9348 6.75304 38.9882 6.69081 39.0433 6.62669C40.7318 4.69593 42.862 3.30845 45.4586 3.09334Z" fill="#013E70"/>
<path d="M69.9397 25.9868V22.1536H75.5687C76.3054 22.1536 76.973 22.004 77.5716 21.7047C78.1702 21.4054 78.6421 20.9795 78.9875 20.4269C79.3328 19.8514 79.5055 19.1607 79.5055 18.3549C79.5055 17.5722 79.3328 16.893 78.9875 16.3175C78.6421 15.7419 78.1702 15.3045 77.5716 15.0052C76.973 14.7059 76.3054 14.5563 75.5687 14.5563H69.9397V10.7231H76.0521C77.5946 10.7231 78.976 11.0339 80.1961 11.6555C81.4393 12.2771 82.4178 13.1634 83.1315 14.3145C83.8452 15.4426 84.202 16.7894 84.202 18.3549C84.202 19.9204 83.8452 21.2788 83.1315 22.4299C82.4178 23.558 81.4393 24.4328 80.1961 25.0544C78.976 25.676 77.5946 25.9868 76.0521 25.9868H69.9397ZM66.4864 35V10.7231H71.1829V35H66.4864ZM94.3462 35.3453C92.6655 35.3453 91.1461 34.9655 89.7878 34.2057C88.4525 33.423 87.3819 32.3755 86.5762 31.0632C85.7934 29.7279 85.402 28.243 85.402 26.6084C85.402 24.9738 85.7934 23.5119 86.5762 22.2227C87.3589 20.9104 88.4295 19.8744 89.7878 19.1147C91.1461 18.3319 92.654 17.9405 94.3116 17.9405C96.0153 17.9405 97.5347 18.3319 98.87 19.1147C100.228 19.8744 101.299 20.9104 102.082 22.2227C102.864 23.5119 103.256 24.9738 103.256 26.6084C103.256 28.243 102.864 29.7279 102.082 31.0632C101.299 32.3755 100.228 33.423 98.87 34.2057C97.5347 34.9655 96.0268 35.3453 94.3462 35.3453ZM94.3116 31.1323C95.1635 31.1323 95.9117 30.9481 96.5563 30.5797C97.2239 30.1884 97.7304 29.6588 98.0758 28.9912C98.4441 28.3005 98.6283 27.5178 98.6283 26.6429C98.6283 25.7681 98.4441 24.9968 98.0758 24.3292C97.7074 23.6616 97.2009 23.1436 96.5563 22.7752C95.9117 22.3838 95.1635 22.1881 94.3116 22.1881C93.4828 22.1881 92.7461 22.3838 92.1015 22.7752C91.4569 23.1436 90.9504 23.6616 90.582 24.3292C90.2137 24.9968 90.0295 25.7681 90.0295 26.6429C90.0295 27.5178 90.2137 28.3005 90.582 28.9912C90.9504 29.6588 91.4569 30.1884 92.1015 30.5797C92.7461 30.9481 93.4828 31.1323 94.3116 31.1323ZM110.252 35L104.001 18.3204H108.56L112.635 30.4416L111.253 30.4761L115.432 18.3204H118.713L122.891 30.4761L121.51 30.4416L125.585 18.3204H130.143L123.927 35H120.647L116.433 23.4659H117.711L113.498 35H110.252ZM139.944 35.3453C138.195 35.3453 136.641 34.977 135.282 34.2403C133.924 33.4805 132.842 32.4445 132.036 31.1323C131.253 29.82 130.862 28.3236 130.862 26.6429C130.862 24.9853 131.242 23.5119 132.002 22.2227C132.784 20.9104 133.843 19.8744 135.179 19.1147C136.514 18.3319 137.999 17.9405 139.633 17.9405C141.245 17.9405 142.661 18.3089 143.881 19.0456C145.124 19.7593 146.091 20.7492 146.782 22.0155C147.495 23.2587 147.852 24.6745 147.852 26.2631C147.852 26.5624 147.829 26.8732 147.783 27.1955C147.76 27.4948 147.703 27.8401 147.611 28.2315L133.59 28.266V24.8817L145.504 24.8472L143.674 26.2631C143.628 25.2731 143.444 24.4443 143.121 23.7767C142.822 23.109 142.373 22.6025 141.774 22.2572C141.199 21.8888 140.485 21.7047 139.633 21.7047C138.736 21.7047 137.953 21.9119 137.285 22.3263C136.617 22.7176 136.099 23.2817 135.731 24.0184C135.386 24.7321 135.213 25.5839 135.213 26.5739C135.213 27.5868 135.397 28.4732 135.766 29.2329C136.157 29.9696 136.71 30.5452 137.423 30.9596C138.137 31.351 138.966 31.5467 139.91 31.5467C140.761 31.5467 141.533 31.4085 142.223 31.1323C142.914 30.833 143.513 30.3956 144.019 29.82L146.678 32.4791C145.872 33.423 144.882 34.1367 143.708 34.6201C142.557 35.1036 141.303 35.3453 139.944 35.3453ZM150.65 35V18.3204H155.174V35H150.65ZM155.174 25.7796L153.413 24.6055C153.62 22.5565 154.219 20.9449 155.208 19.7708C156.198 18.5736 157.626 17.9751 159.491 17.9751C160.296 17.9751 161.022 18.1132 161.666 18.3895C162.311 18.6427 162.898 19.0686 163.427 19.6672L160.596 22.9133C160.342 22.6371 160.032 22.4299 159.663 22.2917C159.318 22.1536 158.915 22.0845 158.455 22.0845C157.488 22.0845 156.693 22.3953 156.072 23.0169C155.473 23.6155 155.174 24.5364 155.174 25.7796ZM178.321 35V11.2411H183.052V35H178.321ZM170.586 14.9016V10.7231H190.788V14.9016H170.586ZM197.238 35.3453C195.557 35.3453 194.038 34.9655 192.68 34.2057C191.344 33.423 190.274 32.3755 189.468 31.0632C188.685 29.7279 188.294 28.243 188.294 26.6084C188.294 24.9738 188.685 23.5119 189.468 22.2227C190.251 20.9104 191.321 19.8744 192.68 19.1147C194.038 18.3319 195.546 17.9405 197.203 17.9405C198.907 17.9405 200.427 18.3319 201.762 19.1147C203.12 19.8744 204.191 20.9104 204.973 22.2227C205.756 23.5119 206.148 24.9738 206.148 26.6084C206.148 28.243 205.756 29.7279 204.973 31.0632C204.191 32.3755 203.12 33.423 201.762 34.2057C200.427 34.9655 198.919 35.3453 197.238 35.3453ZM197.203 31.1323C198.055 31.1323 198.803 30.9481 199.448 30.5797C200.116 30.1884 200.622 29.6588 200.968 28.9912C201.336 28.3005 201.52 27.5178 201.52 26.6429C201.52 25.7681 201.336 24.9968 200.968 24.3292C200.599 23.6616 200.093 23.1436 199.448 22.7752C198.803 22.3838 198.055 22.1881 197.203 22.1881C196.375 22.1881 195.638 22.3838 194.993 22.7752C194.349 23.1436 193.842 23.6616 193.474 24.3292C193.105 24.9968 192.921 25.7681 192.921 26.6429C192.921 27.5178 193.105 28.3005 193.474 28.9912C193.842 29.6588 194.349 30.1884 194.993 30.5797C195.638 30.9481 196.375 31.1323 197.203 31.1323ZM216.899 35.3453C215.218 35.3453 213.699 34.9655 212.341 34.2057C211.005 33.423 209.935 32.3755 209.129 31.0632C208.346 29.7279 207.955 28.243 207.955 26.6084C207.955 24.9738 208.346 23.5119 209.129 22.2227C209.912 20.9104 210.982 19.8744 212.341 19.1147C213.699 18.3319 215.207 17.9405 216.865 17.9405C218.568 17.9405 220.088 18.3319 221.423 19.1147C222.781 19.8744 223.852 20.9104 224.635 22.2227C225.417 23.5119 225.809 24.9738 225.809 26.6084C225.809 28.243 225.417 29.7279 224.635 31.0632C223.852 32.3755 222.781 33.423 221.423 34.2057C220.088 34.9655 218.58 35.3453 216.899 35.3453ZM216.865 31.1323C217.716 31.1323 218.465 30.9481 219.109 30.5797C219.777 30.1884 220.283 29.6588 220.629 28.9912C220.997 28.3005 221.181 27.5178 221.181 26.6429C221.181 25.7681 220.997 24.9968 220.629 24.3292C220.26 23.6616 219.754 23.1436 219.109 22.7752C218.465 22.3838 217.716 22.1881 216.865 22.1881C216.036 22.1881 215.299 22.3838 214.654 22.7752C214.01 23.1436 213.503 23.6616 213.135 24.3292C212.767 24.9968 212.582 25.7681 212.582 26.6429C212.582 27.5178 212.767 28.3005 213.135 28.9912C213.503 29.6588 214.01 30.1884 214.654 30.5797C215.299 30.9481 216.036 31.1323 216.865 31.1323ZM228.721 35V10.0324H233.245V35H228.721Z" fill="#013E70"/>
</svg>
